<?xml version="1.0" encoding="utf-8"?>
<!-- Generator: Adobe Illustrator 27.1.1, SVG Export Plug-In . SVG Version: 6.00 Build 0)  -->
<svg version="1.1" id="Calque_1" xmlns="http://www.w3.org/2000/svg" xmlns:xlink="http://www.w3.org/1999/xlink" x="0px" y="0px"
	 viewBox="0 0 88.4 17.8" style="enable-background:new 0 0 88.4 17.8;" xml:space="preserve">
<style type="text/css">
	.st0{fill:#101130;}
	.st1{fill:#F20487;}
	.st2{fill:#FFFFFF;}
	.st3{font-family:'NewTransport-BoldItalic';}
	.st4{font-size:12px;}
</style>
<path class="st0" d="M18.2-24.8c0,0-0.1,0-0.1,0h-4.6c0,0-0.1,0-0.1,0.1v1.9c0,0,0,0.1,0.1,0.1h3c0,0,0.1,0,0.1,0c0,0,0,0.1,0,0.1
	v1.2c0,0,0,0.1,0,0.1c0,0-0.1,0-0.1,0h-3c0,0-0.1,0-0.1,0.1v2.1c0,0,0,0.1,0.1,0.1h4.6c0,0,0.1,0,0.1,0c0,0,0,0.1,0,0.1v1.5
	c0,0,0,0.1,0,0.1c0,0-0.1,0-0.1,0h-6.4c0,0-0.1,0-0.1,0c0,0,0-0.1,0-0.1v-8.7c0,0,0-0.1,0-0.1c0,0,0.1,0,0.1,0h6.4c0,0,0.1,0,0.1,0
	c0,0,0,0.1,0,0.1v1.3C18.2-24.8,18.2-24.8,18.2-24.8z"/>
<path class="st0" d="M21.2-17.4L19-23.8c0,0,0,0,0-0.1c0-0.1,0-0.1,0.1-0.1h1.8c0.1,0,0.2,0,0.2,0.1l1.2,3.9l0,0l1.1-3.9
	c0-0.1,0.1-0.1,0.2-0.1h1.8c0,0,0.1,0,0.1,0c0,0,0,0.1,0,0.1l-2.1,6.4c0,0.1-0.1,0.1-0.2,0.1h-1.8C21.3-17.3,21.2-17.3,21.2-17.4z"
	/>
<path class="st0" d="M32.4-20.2c0,0.1-0.1,0.2-0.2,0.2h-4.3c-0.1,0-0.1,0-0.1,0.1c0,0.2,0.1,0.4,0.2,0.5c0.3,0.5,0.9,0.8,1.5,0.7
	c0.6,0,1.1-0.2,1.4-0.7c0,0,0.1-0.1,0.1-0.1c0,0,0.1,0,0.1,0l1,0.9c0,0,0.1,0.1,0.1,0.1c0,0,0,0.1-0.1,0.1c-0.3,0.4-0.7,0.6-1.2,0.8
	c-0.5,0.2-1,0.3-1.6,0.3c-0.7,0-1.4-0.2-2-0.5c-0.5-0.3-1-0.8-1.2-1.4c-0.2-0.5-0.3-1.1-0.3-1.7c0-0.4,0.1-0.8,0.2-1.2
	c0.2-0.6,0.6-1.1,1.1-1.5c0.6-0.4,1.2-0.6,1.9-0.5c1.7-0.1,3.1,1.1,3.2,2.7c0,0,0,0,0,0l0,0C32.4-20.9,32.4-20.5,32.4-20.2z
	 M28-21.7c0,0.1-0.1,0.3-0.1,0.4c0,0,0,0.1,0.1,0.1l0,0h2.4c0.1,0,0.1,0,0.1-0.1l-0.1-0.4c-0.1-0.2-0.2-0.5-0.4-0.6
	c-0.2-0.1-0.5-0.2-0.8-0.2C28.6-22.5,28.1-22.2,28-21.7z"/>
<path class="st0" d="M39-23.4c0.5,0.4,0.7,1.1,0.7,1.7v4.3c0,0,0,0.1,0,0.1c0,0-0.1,0-0.1,0h-1.7c0,0-0.1,0-0.1,0c0,0,0-0.1,0-0.1
	v-3.9c0-0.3-0.1-0.6-0.3-0.8c-0.5-0.4-1.2-0.4-1.7,0c-0.2,0.2-0.3,0.5-0.3,0.8v3.9c0,0,0,0.1,0,0.1c0,0-0.1,0-0.1,0h-1.7
	c0,0-0.1,0-0.1,0c0,0,0-0.1,0-0.1v-6.3c0,0,0-0.1,0-0.1c0,0,0.1,0,0.1,0h1.6c0,0,0.1,0,0.1,0c0,0,0,0.1,0,0.1v0.4c0,0,0,0,0,0.1l0,0
	c0.4-0.5,1-0.8,1.7-0.8C37.8-24.1,38.5-23.9,39-23.4z"/>
<path class="st0" d="M45-22.5c0,0-0.1,0.1-0.1,0.1h-1.3c0,0-0.1,0-0.1,0.1v2.7c0,0.2,0.1,0.5,0.2,0.6c0.2,0.2,0.4,0.2,0.6,0.2h0.5
	c0,0,0.1,0,0.1,0c0,0,0,0.1,0,0.1v1.2c0,0.1-0.1,0.1-0.2,0.2h-0.8c-0.6,0-1.2-0.1-1.7-0.4c-0.4-0.3-0.6-0.8-0.6-1.3v-3.5
	c0,0,0-0.1-0.1-0.1l0,0h-0.8c0,0-0.1,0-0.1,0c0,0,0-0.1,0-0.1v-1.2c0,0,0-0.1,0-0.1c0,0,0.1,0,0.1,0h0.8c0,0,0.1,0,0.1-0.1v-1.6
	c0,0,0-0.1,0-0.1c0,0,0.1,0,0.1,0h1.6c0,0,0.1,0,0.1,0c0,0,0,0.1,0,0.1v1.5c0,0,0,0.1,0.1,0.1l0,0h1.5c0,0,0.1,0,0.1,0
	c0,0,0,0.1,0,0.1v1.1C45.1-22.6,45.1-22.5,45-22.5z"/>
<path class="st0" d="M47.8-17.6c-1.1-0.5-1.7-1.6-1.7-2.8v-2.9c0-0.6,0.1-1.2,0.5-1.7c0.3-0.5,0.7-0.9,1.3-1.1
	c1.2-0.5,2.6-0.5,3.8,0c0.5,0.2,0.9,0.6,1.3,1c0.3,0.4,0.5,1,0.5,1.5v0.1c0,0,0,0.1,0,0.1c0,0-0.1,0-0.1,0h-1.7c0,0-0.1,0-0.1,0
	c0,0,0-0.1,0-0.1l0,0c0-0.4-0.2-0.8-0.5-1c-0.7-0.5-1.7-0.5-2.4,0c-0.3,0.3-0.5,0.7-0.5,1.1v3c0,0.4,0.2,0.8,0.5,1.1
	c0.3,0.3,0.8,0.4,1.2,0.4c0.4,0,0.8-0.1,1.1-0.4c0.3-0.2,0.5-0.6,0.4-1v-0.6c0,0,0-0.1,0-0.1c0,0,0,0,0,0l0,0h-1.6c0,0-0.1,0-0.1,0
	c0,0,0-0.1,0-0.1V-22c0,0,0-0.1,0-0.1c0,0,0.1,0,0.1,0h3.4c0,0,0.1,0,0.1,0c0,0,0,0.1,0,0.1v1.7c0,0.6-0.1,1.2-0.4,1.7
	c-0.3,0.5-0.7,0.9-1.2,1.1c-0.6,0.3-1.2,0.4-1.9,0.4C49-17.1,48.4-17.3,47.8-17.6z"/>
<path class="st0" d="M58.9-23.8c0.1,0,0.1,0.1,0.1,0.2l-0.3,1.5c0,0.1-0.1,0.1-0.2,0.1c-0.2,0-0.3-0.1-0.5-0.1h-0.3
	c-0.3,0-0.6,0.1-0.8,0.3c-0.2,0.2-0.4,0.5-0.3,0.8v3.6c0,0,0,0.1,0,0.1c0,0-0.1,0-0.1,0h-1.7c0,0-0.1,0-0.1,0c0,0,0-0.1,0-0.1v-6.4
	c0,0,0-0.1,0-0.1c0,0,0.1,0,0.1,0h1.6c0,0,0.1,0,0.1,0c0,0,0,0.1,0,0.1v0.5l0,0c0.3-0.5,0.9-0.8,1.5-0.8
	C58.3-24,58.6-23.9,58.9-23.8z"/>
<path class="st0" d="M60-24.9c-0.4-0.4-0.4-1-0.1-1.4l0.1-0.1c0.5-0.4,1.1-0.4,1.6,0c0.4,0.4,0.4,1,0.1,1.4l-0.1,0.1
	C61.1-24.5,60.5-24.5,60-24.9L60-24.9z M59.9-17.3c0,0,0-0.1,0-0.1v-6.3c0,0,0-0.1,0-0.1c0,0,0.1,0,0.1,0h1.6c0,0,0.1,0,0.1,0
	c0,0,0,0.1,0,0.1v6.4c0,0,0,0.1,0,0.1c0,0-0.1,0-0.1,0L59.9-17.3L59.9-17.3z"/>
<path class="st0" d="M67.7-26.3c0,0,0.1,0,0.1,0h1.6c0,0,0.1,0,0.1,0c0,0,0,0.1,0,0.1v8.7c0,0,0,0.1,0,0.1c0,0-0.1,0-0.1,0h-1.6
	c0,0-0.1,0-0.1,0c0,0,0-0.1,0-0.1v-0.4l0,0c0,0,0,0-0.1,0c-0.4,0.5-1,0.7-1.6,0.7c-1.2,0-2.3-0.7-2.7-1.9c-0.2-0.5-0.2-1-0.2-1.6
	c0-0.5,0.1-1.1,0.2-1.6c0.2-0.5,0.5-1,1-1.3c0.5-0.3,1.1-0.5,1.7-0.5c0.6,0,1.2,0.2,1.6,0.6h0.1v-2.8C67.6-26.2,67.6-26.2,67.7-26.3
	z M67.6-20.6c0-0.5-0.1-0.9-0.3-1.4c-0.2-0.3-0.6-0.5-0.9-0.5c-0.4,0-0.8,0.2-1,0.5C65.1-21.5,65-21,65-20.6c0,0.4,0.1,0.9,0.3,1.3
	c0.2,0.3,0.6,0.5,1,0.5c0.4,0,0.8-0.2,1-0.6C67.5-19.7,67.6-20.1,67.6-20.6z"/>
<path class="st0" d="M72.1-17.4c-0.4-0.1-0.8-0.4-1.1-0.7c-0.2-0.3-0.4-0.6-0.4-1v-0.1c0,0,0-0.1,0-0.1c0-0.1,0.1-0.1,0.2-0.1h1.5
	c0,0,0.1,0,0.1,0c0,0,0,0.1,0,0.1l0,0c0,0.2,0.1,0.4,0.3,0.5c0.3,0.1,0.6,0.2,0.8,0.2c0.3,0,0.5,0,0.8-0.2c0.2-0.1,0.3-0.2,0.3-0.4
	c0-0.2-0.1-0.3-0.2-0.4c-0.3-0.1-0.5-0.2-0.8-0.2c-0.3-0.1-0.7-0.2-1-0.3c-0.5-0.1-1-0.4-1.4-0.7c-0.4-0.3-0.6-0.7-0.5-1.2
	c0-0.6,0.3-1.2,0.8-1.5c0.6-0.4,1.4-0.6,2.1-0.6c0.5,0,1.1,0.1,1.6,0.3c0.4,0.2,0.7,0.4,1,0.7c0.2,0.3,0.4,0.7,0.4,1.1
	c0,0,0,0.1,0,0.1c0,0-0.1,0-0.1,0H75c0,0-0.1,0-0.1,0c0,0,0-0.1,0-0.1c0-0.2-0.1-0.4-0.3-0.5c-0.3-0.1-0.5-0.2-0.8-0.2
	c-0.3,0-0.6,0.1-0.8,0.3c-0.2,0.1-0.3,0.2-0.3,0.4c0,0.2,0.1,0.3,0.3,0.4c0.3,0.1,0.6,0.2,0.9,0.3l0.3,0.1l0.4,0.1
	c0.6,0.1,1.1,0.4,1.6,0.7c0.4,0.3,0.6,0.8,0.6,1.2c0,0.6-0.3,1.2-0.8,1.5c-0.7,0.4-1.4,0.6-2.2,0.5C73.2-17.2,72.7-17.2,72.1-17.4z"
	/>
<path class="st1" d="M19.3,10.3c0,4.1-3.4,7.5-7.5,7.5c-3.2,0-6.1-2-7.1-5.1c-0.2,0.1-0.5,0.2-0.8,0.2c-0.9,0-1.7-0.8-1.7-1.7
	c0-0.9,0.8-1.7,1.7-1.7l0,0c0.1,0,0.3,0,0.4,0c0-0.4,0.1-0.7,0.2-1.1H4.3C3,8.5,2,7.4,1.9,6.2s1-2.3,2.3-2.4c0.9,0,1.7,0.5,2.1,1.3
	c0.3-0.3,0.6-0.6,1-0.9c-0.8-0.5-1-1.6-0.4-2.4s1.6-1,2.4-0.4c0.4,0.3,0.7,0.8,0.7,1.4V3c0.6-0.1,1.2-0.2,1.7-0.2
	C15.9,2.8,19.3,6.2,19.3,10.3z"/>
<circle class="st1" cx="1" cy="8.9" r="1"/>
<circle class="st1" cx="1" cy="4.5" r="0.7"/>
<circle class="st1" cx="4.2" cy="1.4" r="1.4"/>
<path class="st2" d="M13.8,12.3c0.3,0.2,0.5,0.5,0.8,0.8l0,0c0.1,0.1,0.1,0.1,0.1,0.2c0,0.1-0.1,0.2-0.2,0.2c0,0,0,0,0,0h-0.1
	c-0.1,0-0.1,0-0.1-0.1l0,0c-0.2-0.3-0.4-0.5-0.7-0.7c-0.4-0.4-0.9-0.6-1.5-0.6c-0.2,0-0.3,0-0.5,0.1c-0.2,0.1-0.3,0.2-0.4,0.3
	c-0.1,0.1-0.3,0.2-0.4,0.4l-0.4,0.4c-0.2,0.1-0.3,0.2-0.5,0.3c-0.2,0.1-0.4,0.1-0.6,0.1c-0.2,0-0.4,0-0.6,0l0,0
	c-0.2-0.1-0.4-0.3-0.4-0.6c0-0.3,0.2-0.7,0.4-0.9h0.1c0-0.1,0-0.1,0-0.2c0-0.1,0.1-0.1,0.1-0.2l2.6-3.2c0.2,0.6,0.7,1,1.2,1.2
	l-3.2,2.6c-0.1,0.1-0.1,0.1-0.2,0.1c-0.1,0-0.2,0-0.3,0h0c-0.1,0.1-0.1,0.1-0.2,0.2c-0.1,0.1-0.1,0.2-0.1,0.3c0,0.1,0.1,0.1,0.1,0.2
	c0.2,0,0.4,0,0.6,0c0.2,0,0.3-0.1,0.5-0.2l0.5-0.4l0,0l0.5-0.4c0.2-0.1,0.3-0.2,0.5-0.3c0.2-0.1,0.4-0.1,0.6-0.1
	C12.6,11.7,13.3,11.9,13.8,12.3z M13.6,9.3c-0.2,0-0.5,0-0.7-0.1c-0.5-0.2-0.8-0.5-1-1c-0.1-0.2-0.1-0.5-0.1-0.7
	c0-0.2,0.1-0.4,0.2-0.6c0.3,1.1,1.2,2,2.3,2.3C14.1,9.3,13.9,9.4,13.6,9.3z M14.7,7.4c0.1,0.2,0.1,0.5,0.1,0.7
	c0,0.2-0.1,0.4-0.2,0.6c-0.6-0.1-1.1-0.4-1.5-0.8c-0.2-0.2-0.4-0.4-0.5-0.6c-0.1-0.3-0.2-0.5-0.3-0.8c0.2-0.1,0.4-0.2,0.6-0.2
	c0.2,0,0.5,0,0.7,0.1C14.1,6.7,14.5,7,14.7,7.4L14.7,7.4z"/>
<text transform="matrix(1 0 0 1 21.7975 12.6034)" class="st3 st4">Flex’Music</text>
</svg>
