<?xml version="1.0" encoding="utf-8"?>
<!-- Generator: Adobe Illustrator 27.1.1, SVG Export Plug-In . SVG Version: 6.00 Build 0)  -->
<svg version="1.1" id="Calque_1" xmlns="http://www.w3.org/2000/svg" xmlns:xlink="http://www.w3.org/1999/xlink" x="0px" y="0px"
	 viewBox="0 0 88.4 17.8" style="enable-background:new 0 0 88.4 17.8;" xml:space="preserve">
<style type="text/css">
	.st0{fill:#FFFFFF;}
	.st1{fill:#F20487;}
	.st2{font-family:'NewTransport-BoldItalic';}
	.st3{font-size:12px;}
</style>
<path class="st0" d="M26.4,27.2c0,0-0.1,0-0.1,0h-4.5c0,0-0.1,0-0.1,0.1v1.9c0,0,0,0.1,0.1,0.1c0,0,0,0,0,0h3c0,0,0.1,0,0.1,0
	c0,0,0,0.1,0,0.1v1.2c0,0,0,0.1,0,0.1c0,0-0.1,0-0.1,0h-3c0,0-0.1,0-0.1,0.1v2.1c0,0,0,0.1,0.1,0.1c0,0,0,0,0,0h4.5c0,0,0.1,0,0.1,0
	c0,0,0,0.1,0,0.1v1.5c0,0,0,0.1,0,0.1c0,0-0.1,0-0.1,0h-6.4c0,0-0.1,0-0.1,0c0,0,0-0.1,0-0.1v-8.7c0,0,0-0.1,0-0.1c0,0,0.1,0,0.1,0
	h6.4c0,0,0.1,0,0.1,0c0,0,0,0.1,0,0.1v1.3C26.4,27.1,26.4,27.1,26.4,27.2z"/>
<path class="st0" d="M29.4,34.5l-2.2-6.4c0,0,0,0,0-0.1c0-0.1,0-0.1,0.1-0.1h1.8c0.1,0,0.2,0,0.2,0.1l1.2,3.9l0,0l1.1-3.9
	c0-0.1,0.1-0.1,0.2-0.1h1.8c0,0,0.1,0,0.1,0c0,0,0,0.1,0,0.1l-2.1,6.4c0,0.1-0.1,0.1-0.2,0.1h-1.8C29.5,34.7,29.4,34.6,29.4,34.5z"
	/>
<path class="st0" d="M40.6,31.8c0,0.1-0.1,0.2-0.2,0.2h-4.3c-0.1,0-0.1,0-0.1,0.1c0,0.2,0.1,0.4,0.2,0.5c0.3,0.5,0.9,0.8,1.5,0.7
	c0.6,0,1.1-0.2,1.4-0.7c0,0,0.1-0.1,0.1-0.1c0,0,0.1,0,0.1,0l1,0.9c0,0,0.1,0.1,0.1,0.1c0,0,0,0.1-0.1,0.1c-0.3,0.4-0.7,0.6-1.2,0.8
	c-0.5,0.2-1,0.3-1.6,0.3c-0.7,0-1.4-0.2-2-0.5c-0.5-0.3-1-0.8-1.2-1.4c-0.2-0.5-0.3-1.1-0.3-1.7c0-0.4,0.1-0.8,0.2-1.2
	c0.2-0.6,0.6-1.1,1.1-1.5c0.6-0.4,1.2-0.6,1.9-0.5c1.7-0.1,3.1,1.1,3.2,2.7c0,0,0,0,0,0l0,0C40.6,31,40.6,31.4,40.6,31.8z
	 M36.1,30.3c0,0.1-0.1,0.3-0.1,0.4c0,0,0,0.1,0.1,0.1c0,0,0,0,0,0h2.4c0.1,0,0.1,0,0.1-0.1l-0.1-0.4c-0.1-0.2-0.2-0.5-0.4-0.6
	c-0.2-0.1-0.5-0.2-0.8-0.2C36.8,29.5,36.3,29.8,36.1,30.3z"/>
<path class="st0" d="M47.2,28.5c0.5,0.4,0.7,1.1,0.7,1.7v4.3c0,0,0,0.1,0,0.1c0,0-0.1,0-0.1,0h-1.7c0,0-0.1,0-0.1,0c0,0,0-0.1,0-0.1
	v-3.9c0-0.3-0.1-0.6-0.3-0.8c-0.5-0.4-1.2-0.4-1.7,0c-0.2,0.2-0.3,0.5-0.3,0.8v3.9c0,0,0,0.1,0,0.1c0,0-0.1,0-0.1,0h-1.7
	c0,0-0.1,0-0.1,0c0,0,0-0.1,0-0.1v-6.4c0,0,0-0.1,0-0.1c0,0,0.1,0,0.1,0h1.6c0,0,0.1,0,0.1,0c0,0,0,0.1,0,0.1v0.5c0,0,0,0,0,0l0,0
	c0.4-0.5,1-0.8,1.7-0.8C46,27.9,46.7,28.1,47.2,28.5z"/>
<path class="st0" d="M53.2,29.5c0,0-0.1,0.1-0.1,0.1h-1.3c0,0-0.1,0-0.1,0.1v2.7c0,0.2,0.1,0.5,0.2,0.6c0.2,0.2,0.4,0.2,0.6,0.2h0.5
	c0,0,0.1,0,0.1,0c0,0,0,0.1,0,0.1v1.2c0,0.1-0.1,0.2-0.2,0.2h-0.8c-0.6,0-1.2-0.1-1.7-0.4c-0.4-0.3-0.6-0.8-0.6-1.3v-3.5
	c0,0,0-0.1-0.1-0.1c0,0,0,0,0,0h-0.8c0,0-0.1,0-0.1,0c0,0,0-0.1,0-0.1v-1.2c0,0,0-0.1,0-0.1c0,0,0.1,0,0.1,0h0.8c0,0,0.1,0,0.1-0.1
	v-1.6c0,0,0-0.1,0-0.1c0,0,0.1,0,0.1,0h1.6c0,0,0.1,0,0.1,0c0,0,0,0.1,0,0.1V28c0,0,0,0.1,0.1,0.1c0,0,0,0,0,0h1.5c0,0,0.1,0,0.1,0
	c0,0,0,0.1,0,0.1v1.1C53.2,29.4,53.2,29.4,53.2,29.5z"/>
<path class="st0" d="M56,34.4c-1.1-0.5-1.7-1.6-1.7-2.8v-2.9c0-0.6,0.1-1.2,0.5-1.7c0.3-0.5,0.7-0.9,1.3-1.1c1.2-0.5,2.6-0.5,3.8,0
	c0.5,0.2,0.9,0.6,1.3,1c0.3,0.4,0.5,1,0.5,1.5v0.1c0,0,0,0.1,0,0.1c0,0-0.1,0-0.1,0h-1.7c0,0-0.1,0-0.1,0c0,0,0-0.1,0-0.1l0,0
	c0-0.4-0.2-0.8-0.5-1c-0.7-0.5-1.7-0.5-2.4,0c-0.3,0.3-0.5,0.7-0.5,1.1v3c0,0.4,0.2,0.8,0.5,1.1c0.3,0.3,0.8,0.4,1.2,0.4
	c0.4,0,0.8-0.1,1.1-0.4c0.3-0.2,0.5-0.6,0.4-1v-0.6c0,0,0-0.1,0-0.1c0,0,0,0,0,0h-1.6c0,0-0.1,0-0.1,0c0,0,0-0.1,0-0.1v-1.2
	c0,0,0-0.1,0-0.1c0,0,0.1,0,0.1,0h3.4c0,0,0.1,0,0.1,0c0,0,0,0.1,0,0.1v1.7c0,0.6-0.1,1.2-0.4,1.7c-0.3,0.5-0.7,0.9-1.2,1.1
	c-0.6,0.3-1.2,0.4-1.9,0.4C57.2,34.8,56.6,34.7,56,34.4z"/>
<path class="st0" d="M67.1,28.2c0.1,0,0.1,0.1,0.1,0.2l-0.3,1.5c0,0.1-0.1,0.1-0.2,0.1c-0.2,0-0.3-0.1-0.5-0.1h-0.3
	c-0.3,0-0.6,0.1-0.8,0.3c-0.2,0.2-0.4,0.5-0.3,0.8v3.6c0,0,0,0.1,0,0.1c0,0-0.1,0-0.1,0h-1.7c0,0-0.1,0-0.1,0c0,0,0-0.1,0-0.1v-6.4
	c0,0,0-0.1,0-0.1c0,0,0.1,0,0.1,0h1.6c0,0,0.1,0,0.1,0c0,0,0,0.1,0,0.1v0.5 M64.6,28.7L64.6,28.7c0.3-0.5,0.9-0.8,1.5-0.8
	c0.3,0,0.7,0,0.9,0.2L64.6,28.7z"/>
<path class="st0" d="M68.2,27c-0.4-0.4-0.4-1-0.1-1.4l0.1-0.1c0.5-0.4,1.1-0.4,1.6,0c0.4,0.4,0.4,1,0.1,1.4L69.8,27
	C69.3,27.4,68.7,27.4,68.2,27L68.2,27z M68.1,34.6c0,0,0-0.1,0-0.1v-6.3c0,0,0-0.1,0-0.1c0,0,0.1,0,0.1,0h1.6c0,0,0.1,0,0.1,0
	c0,0,0,0.1,0,0.1v6.4c0,0,0,0.1,0,0.1c0,0-0.1,0-0.1,0L68.1,34.6L68.1,34.6z"/>
<path class="st0" d="M75.8,25.7c0,0,0.1,0,0.1,0h1.6c0,0,0.1,0,0.1,0c0,0,0,0.1,0,0.1v8.7c0,0,0,0.1,0,0.1c0,0-0.1,0-0.1,0h-1.6
	c0,0-0.1,0-0.1,0c0,0,0-0.1,0-0.1v-0.4l0,0c0,0,0,0-0.1,0c-0.4,0.5-1,0.7-1.6,0.7c-1.2,0-2.3-0.7-2.7-1.9c-0.2-0.5-0.2-1-0.2-1.6
	c0-0.5,0.1-1.1,0.2-1.6c0.2-0.5,0.5-1,1-1.3c0.5-0.3,1.1-0.5,1.7-0.5c0.6,0,1.2,0.2,1.6,0.6h0.1 M75.8,28.6v-2.8c0,0,0-0.1,0-0.1
	V28.6z M75.8,31.4c0-0.5-0.1-0.9-0.3-1.4c-0.2-0.3-0.6-0.5-0.9-0.5c-0.4,0-0.8,0.2-1,0.5c-0.3,0.4-0.4,0.9-0.3,1.4
	c0,0.4,0.1,0.9,0.3,1.3c0.2,0.3,0.6,0.5,1,0.5c0.4,0,0.8-0.2,1-0.6C75.7,32.2,75.8,31.8,75.8,31.4z"/>
<path class="st0" d="M80.3,34.5c-0.4-0.1-0.8-0.4-1.1-0.7c-0.2-0.3-0.4-0.6-0.4-1v-0.1c0,0,0-0.1,0-0.1c0-0.1,0.1-0.1,0.2-0.1h1.5
	c0,0,0.1,0,0.1,0c0,0,0,0.1,0,0.1l0,0c0,0.2,0.1,0.4,0.3,0.5c0.3,0.1,0.6,0.2,0.8,0.2c0.3,0,0.5,0,0.8-0.2c0.2-0.1,0.3-0.2,0.3-0.4
	c0-0.2-0.1-0.3-0.2-0.3c-0.3-0.1-0.5-0.2-0.8-0.2c-0.3-0.1-0.7-0.2-1-0.3c-0.5-0.1-1-0.4-1.4-0.7c-0.4-0.3-0.6-0.7-0.5-1.2
	c0-0.6,0.3-1.2,0.8-1.5c0.6-0.4,1.4-0.6,2.1-0.6c0.5,0,1.1,0.1,1.6,0.3c0.4,0.2,0.7,0.4,1,0.7c0.2,0.3,0.4,0.7,0.4,1.1
	c0,0,0,0.1,0,0.1c0,0-0.1,0-0.1,0h-1.5c0,0-0.1,0-0.1,0c0,0,0-0.1,0-0.1c0-0.2-0.1-0.4-0.3-0.5c-0.3-0.1-0.5-0.2-0.8-0.2
	c-0.3,0-0.6,0.1-0.8,0.3c-0.2,0.1-0.3,0.2-0.3,0.4c0,0.2,0.1,0.3,0.3,0.4c0.3,0.1,0.6,0.2,0.9,0.3l0.3,0.1l0.4,0.1
	c0.6,0.1,1.1,0.4,1.6,0.7c0.4,0.3,0.6,0.8,0.6,1.2c0,0.6-0.3,1.2-0.8,1.5c-0.7,0.4-1.4,0.6-2.2,0.5C81.4,34.8,80.8,34.7,80.3,34.5z"
	/>
<path class="st1" d="M19.3,10.4c0,4.1-3.4,7.5-7.5,7.5c-3.2,0-6.1-2-7.1-5.1C4.5,13,4.2,13,3.9,13c-0.9,0-1.7-0.8-1.7-1.7
	S3,9.6,3.9,9.6c0,0,0,0,0,0l0,0c0.1,0,0.3,0,0.4,0c0-0.4,0.1-0.7,0.2-1.1H4.3C3,8.5,2,7.5,1.9,6.2s1-2.3,2.3-2.4
	c0.9,0,1.7,0.5,2.1,1.3c0.3-0.3,0.6-0.6,1-0.9c-0.8-0.5-1-1.6-0.4-2.4s1.6-1,2.4-0.4c0.4,0.3,0.7,0.8,0.7,1.4v0.2
	c0.6-0.1,1.2-0.2,1.7-0.2C15.9,2.9,19.3,6.2,19.3,10.4z"/>
<circle class="st1" cx="1" cy="8.9" r="1"/>
<circle class="st1" cx="1" cy="4.5" r="0.7"/>
<circle class="st1" cx="4.2" cy="1.4" r="1.4"/>
<path class="st0" d="M13.8,11.9c0.3,0.2,0.5,0.5,0.8,0.8l0,0c0.1,0.1,0.1,0.1,0.1,0.2c0,0.1-0.1,0.2-0.2,0.2c0,0-0.1,0-0.1,0
	c-0.1,0-0.1,0-0.1-0.1l0,0c-0.2-0.3-0.4-0.5-0.7-0.7c-0.4-0.4-1-0.6-1.5-0.6c-0.2,0-0.3,0-0.5,0.1c-0.2,0.1-0.3,0.2-0.4,0.3
	c-0.1,0.1-0.3,0.2-0.4,0.4l-0.4,0.4c-0.2,0.1-0.3,0.2-0.5,0.3c-0.2,0.1-0.4,0.1-0.6,0.1c-0.2,0-0.4,0-0.6,0h0
	c-0.2-0.1-0.3-0.3-0.4-0.6c0-0.3,0.2-0.7,0.4-0.9h0.1c0-0.1,0-0.1,0-0.2c0-0.1,0.1-0.1,0.1-0.2l2.6-3.2c0.2,0.6,0.7,1,1.2,1.2
	l-3.2,2.6C9.4,12,9.4,12,9.3,12c-0.1,0-0.2,0-0.3,0h0c-0.1,0.1-0.1,0.1-0.2,0.2c-0.1,0.1-0.1,0.2-0.1,0.3c0,0.1,0.1,0.1,0.1,0.2
	c0.2,0,0.4,0,0.6,0c0.2,0,0.3-0.1,0.5-0.2l0.5-0.4l0,0l0.5-0.4c0.2-0.1,0.3-0.2,0.5-0.3c0.2-0.1,0.4-0.1,0.6-0.1
	C12.6,11.3,13.3,11.5,13.8,11.9z M13.6,8.9c-0.2,0-0.5,0-0.7-0.1c-0.5-0.2-0.8-0.5-1-1c-0.1-0.2-0.1-0.5-0.1-0.7
	c0-0.2,0.1-0.4,0.2-0.6c0.3,1.1,1.2,2,2.3,2.3C14.1,8.9,13.9,8.9,13.6,8.9z M14.7,7c0.1,0.2,0.1,0.5,0.1,0.7c0,0.2-0.1,0.4-0.2,0.6
	c-0.6-0.1-1.1-0.4-1.5-0.8c-0.2-0.2-0.4-0.4-0.5-0.6c-0.1-0.3-0.2-0.5-0.3-0.8C12.5,6,12.8,5.9,13,5.9c0.2,0,0.5,0,0.7,0.1
	C14.1,6.2,14.5,6.6,14.7,7L14.7,7z"/>
<text transform="matrix(1 0 0 1 22.4404 12.9297)" class="st0 st2 st3">Flex’Music</text>
</svg>
